<?xml version="1.0" ?><!DOCTYPE svg  PUBLIC '-//W3C//DTD SVG 1.1//EN'  'http://www.w3.org/Graphics/SVG/1.1/DTD/svg11.dtd'><svg enable-background="new 0 0 64 64" id="Layer_1" version="1.1" viewBox="0 0 64 64" xml:space="preserve" xmlns="http://www.w3.org/2000/svg" xmlns:xlink="http://www.w3.org/1999/xlink"><g><polygon points="38.6,9.2 37.5,8.1 29.7,15.9 26.5,12.7 25.4,13.8 29.7,18  "/><path d="M42.5,2.3h-21v21h21V2.3z M41,21.8H23v-18h18V21.8z"/><path d="M63.2,38.5c-2.5,1.7-4.9,3.5-7.3,5.3c-0.4,0.3-0.8,0.4-1.1,0.4c-0.2,0-0.3-0.1-0.4-0.3l-8.3-12.2c-0.1-0.1-0.1-0.3-0.1-0.5   c0.1-0.3,0.4-0.7,0.8-0.9c1.8-1.1,3.5-2.2,5.3-3.3L51,25.8c-1.7,1.1-3.5,2.2-5.2,3.3c-0.6,0.4-1,0.9-1.3,1.5H29.4h-1.3h-8.6   c-0.2-0.6-0.7-1.1-1.3-1.5c-1.8-1.1-3.5-2.2-5.2-3.3L12.2,27c1.7,1.1,3.5,2.3,5.3,3.3c0.4,0.2,0.7,0.6,0.8,0.9c0,0.2,0,0.4-0.1,0.5   L9.7,43.9c-0.1,0.1-0.2,0.2-0.4,0.3c-0.3,0.1-0.8-0.1-1.1-0.4c-2.4-1.9-4.9-3.6-7.3-5.3L0,39.7c2.4,1.7,4.9,3.4,7.2,5.3   c1.3,1,2.9,0.9,3.7-0.2l0.6-0.9c0.6,0.5,1.3,1.2,1.6,1.9c0.1,0.3,0.2,0.4,0.3,0.6c0,0.1,0.1,0.2,0.1,0.3c-1,0.6-1.5,1.6-1.4,3.2   c0.2,1.7,2.2,3.2,3.9,2.8c0,0.2,0,0.4,0,0.5c0.1,0.9,0.6,1.7,1.3,2.2c0.9,0.7,1.9,0.8,2.8,0.5c0,1,0.5,1.9,1.3,2.6   c0.8,0.6,1.8,0.8,3,0.5c0,0.1,0,0.1,0,0.2c0.1,0.8,0.5,1.5,1.2,2c1.3,1,3.3,0.6,4.1-0.5c1.6,1,3.7,0.5,4.7-1c0.4-0.6,0.6-1.3,0.6-2   l0.9,0.6c0,0,2.6,1.9,4.8-0.9c0.4-0.6,0.6-1.3,0.6-2l0.2,0.1c1.7,1,3.7,0.6,4.8-0.9c0.4-0.6,0.6-1.3,0.6-2l0.5,0.3   c1.4,1,3.6,0.7,4.8-0.9c0.5-0.8,0.7-1.7,0.5-2.6c-0.2-0.9-0.7-1.7-1.4-2.2l-11.3-7.6H38c-3.7,0-4.2-3-4.2-3.1l-0.1-0.6H26l-0.1,0.6   c-0.3,1.8-0.9,3-1.9,3.6c-0.5,0.3-1.1,0.4-1.4,0.4v-5.1l5.9-3.3h0.9h15c0.1,0.2,0.1,0.4,0.3,0.6L53,44.8c0.3,0.5,0.8,0.8,1.4,0.9   c0.1,0,0.3,0,0.4,0c0.6,0,1.3-0.2,1.9-0.7c2.4-1.8,4.8-3.6,7.2-5.3L63.2,38.5z M17.2,50.2l-0.4,0.5c0,0,0,0.1-0.1,0.1   c-0.6,0.5-1.6,0.6-2.2,0.1l-0.1-0.1c-0.4-0.3-0.6-0.7-0.7-1.2c-0.1-0.5,0-0.9,0.3-1.3c0.3-0.5,0.9-0.7,1.4-0.7   c0.4,0,0.7,0.1,1.1,0.3l0.1,0.1c0.4,0.3,0.6,0.7,0.7,1.2C17.4,49.5,17.3,49.9,17.2,50.2z M20.9,53.8c-0.6,0.8-1.8,1-2.6,0.4   c-0.4-0.3-0.7-0.7-0.7-1.2c-0.1-0.5,0-0.9,0.3-1.3c0.1-0.1,0.2-0.2,0.2-0.3c0.1-0.1,0.2-0.3,0.3-0.5l0.7-0.9   c0.4-0.5,0.9-0.8,1.5-0.8c0.4,0,0.8,0.1,1.1,0.4c0.8,0.6,1,1.8,0.4,2.6L20.9,53.8z M25.1,56.9c-0.6,0.8-1.8,1-2.6,0.4   c-0.8-0.6-1-1.8-0.4-2.6l1.1-1.5c0,0,0,0,0,0l1-1.4c0.4-0.5,0.9-0.8,1.5-0.8c0.4,0,0.8,0.1,1.1,0.4c0.8,0.6,1,1.8,0.4,2.6   L25.1,56.9z M29.1,59.2l-0.3,0.4c-0.5,0.7-1.5,0.8-2.1,0.3c-0.3-0.2-0.5-0.6-0.6-1c-0.1-0.4,0-0.8,0.3-1.1l0.3-0.4   c0.3-0.4,0.7-0.6,1.2-0.6c0.3,0,0.6,0.1,0.9,0.3c0.3,0.2,0.5,0.6,0.6,1C29.5,58.5,29.4,58.9,29.1,59.2z M21.1,34.4v7.2l0.5,0.2   c0.1,0,1.6,0.5,3.2-0.4c1.2-0.7,2-2.1,2.5-4h5.2c0.5,1.6,2,3.7,5.5,3.7h1.7l10.9,7.4c0.9,0.6,1.1,1.8,0.5,2.7   c-0.7,0.9-1.6,1.1-2.8,0.5l-2.8-1.9v0l-7.8-5.4L37,45.7l7.8,5.4c0.9,0.6,1.1,1.9,0.5,2.7c-0.3,0.4-0.7,0.7-1.3,0.8   c-0.5,0.1-1,0-1.5-0.3l-7.8-5.4L34.7,49l0,0l-0.8,1.2l5.3,3.5c0.4,0.3,0.7,0.7,0.8,1.3c0.1,0.5,0,1-0.3,1.5   c-0.6,0.9-1.8,1.1-2.7,0.5l-5-3.6L31,54.7l1.9,1.3l0,0.1c0.4,0.3,0.7,0.7,0.8,1.3c0.1,0.5,0,1-0.3,1.5c-0.6,0.9-1.8,1.1-2.7,0.5   c0.2-0.5,0.2-1,0.2-1.5c-0.1-0.8-0.5-1.5-1.2-2c-0.5-0.3-1-0.5-1.6-0.5l0.3-0.5c1.1-1.5,0.8-3.6-0.7-4.7c-0.6-0.4-1.3-0.7-2-0.7   c-0.7,0-1.4,0.3-2,0.7c-0.2-0.7-0.6-1.3-1.2-1.8c-0.6-0.4-1.3-0.7-2-0.7c-0.7,0-1.4,0.2-2,0.7c-0.2-0.7-0.6-1.2-1.3-1.7   c-0.7-0.5-1.5-0.7-2.4-0.6c-0.1-0.1-0.1-0.2-0.2-0.4c-0.1-0.2-0.2-0.4-0.3-0.7c-0.5-1-1.5-1.9-2.1-2.4l6.9-10   c0.1-0.2,0.2-0.4,0.3-0.6h5.9L21.1,34.4z"/><rect height="1.5" transform="matrix(0.5218 0.8531 -0.8531 0.5218 61.5567 -27.3448)" width="1.5" x="54.4" y="40.5"/><rect height="1.5" transform="matrix(0.8213 0.5705 -0.5705 0.8213 25.0916 2.316)" width="1.5" x="8.1" y="40.5"/></g></svg>