<?xml version="1.0" ?><svg enable-background="new 0 0 32 32" id="Glyph" version="1.1" viewBox="0 0 32 32" xml:space="preserve" xmlns="http://www.w3.org/2000/svg" xmlns:xlink="http://www.w3.org/1999/xlink"><path d="M29.989,29.149C29.915,29.638,29.495,30,29,30H3c-0.495,0-0.916-0.362-0.989-0.851c-0.074-0.49,0.222-0.959,0.695-1.104  c3.801-1.17,7.088-1.919,11.294-2.023l0-7.03c0,0,0,0,0,0c-0.004-3.835-2.302-6.019-5.537-6.879  c-0.154-0.041-0.269,0.14-0.174,0.269c1.499,2.037,2.408,4.166,2.713,6.135c0.024,0.152-0.113,0.286-0.266,0.267  C3.69,17.88,2,13.578,2,7.005C2,6.454,2.436,6,2.988,6c4.646-0.003,9.16,1.514,11.428,5.59C16.072,4.718,21.95,2,29,2  c0.553,0,1,0.447,1,1c0,7.217-2.007,11.726-9.854,12.741c-0.076,0.01-0.144-0.056-0.131-0.131c0.382-2.205,1.607-4.922,3.655-7.247  c0.093-0.105-0.007-0.269-0.141-0.227c-3.713,1.157-6.493,4.012-6.526,7.838c-0.001,0-0.002,0-0.003,0v10.071  c4.236,0.177,8.705,0.894,12.294,1.999C29.767,28.19,30.062,28.659,29.989,29.149z"/></svg>