<?xml version="1.0" ?><svg id="Layer_1_1_" style="enable-background:new 0 0 64 64;" version="1.1" viewBox="0 0 64 64" xml:space="preserve" xmlns="http://www.w3.org/2000/svg" xmlns:xlink="http://www.w3.org/1999/xlink"><g/><path d="M57.757,20.264C58.521,19.385,59,18.253,59,17c0-2.757-2.243-5-5-5s-5,2.243-5,5c0,1.253,0.479,2.385,1.243,3.264  c-2.092,0.642-3.699,2.399-4.128,4.574L32.826,22.18V20H39c0.553,0,1-0.448,1-1v-3c0-2.697-1.789-4.983-4.243-5.736  C36.521,9.385,37,8.253,37,7c0-2.757-2.243-5-5-5s-5,2.243-5,5c0,1.253,0.479,2.385,1.243,3.264C25.789,11.017,24,13.303,24,16v3  c0,0.552,0.447,1,1,1h5.826v2.18l-12.954,2.591c-0.448-2.145-2.045-3.872-4.116-4.507C14.521,19.385,15,18.253,15,17  c0-2.757-2.243-5-5-5s-5,2.243-5,5c0,1.253,0.479,2.385,1.243,3.264C3.789,21.017,2,23.303,2,26v3c0,0.552,0.447,1,1,1h14  c0.553,0,1-0.448,1-1v-2.215l13.826-2.765L46,26.854V29c0,0.552,0.447,1,1,1h14c0.553,0,1-0.448,1-1v-3  C62,23.303,60.211,21.017,57.757,20.264z M32,4c1.654,0,3,1.346,3,3s-1.346,3-3,3s-3-1.346-3-3S30.346,4,32,4z M26,16  c0-2.206,1.794-4,4-4h4c2.206,0,4,1.794,4,4v2H26V16z M10,14c1.654,0,3,1.346,3,3s-1.346,3-3,3s-3-1.346-3-3S8.346,14,10,14z M16,28  H4v-2c0-2.206,1.794-4,4-4h4c2.206,0,4,1.794,4,4V28z M54,14c1.654,0,3,1.346,3,3s-1.346,3-3,3s-3-1.346-3-3S52.346,14,54,14z   M60,28H48v-2c0-2.206,1.794-4,4-4h4c2.206,0,4,1.794,4,4V28z"/><path d="M60.834,50.725c-0.013-0.044-0.028-0.086-0.041-0.129c-0.117-0.399-0.242-0.795-0.375-1.187  c-0.045-0.134-0.089-0.267-0.136-0.4c-0.114-0.322-0.236-0.639-0.36-0.956c-0.076-0.195-0.151-0.392-0.231-0.585  c-0.089-0.213-0.185-0.422-0.279-0.632c-0.701-1.581-1.535-3.095-2.504-4.534c-0.017-0.025-0.033-0.051-0.05-0.076  c-0.221-0.327-0.453-0.648-0.688-0.967c-0.071-0.096-0.141-0.194-0.213-0.289c-0.214-0.284-0.436-0.563-0.661-0.84  c-0.099-0.122-0.198-0.243-0.299-0.364c-0.117-0.139-0.226-0.282-0.345-0.42c-0.015-0.017-0.037-0.023-0.052-0.039  C49.097,32.997,41.009,29,32,29S14.903,32.997,9.399,39.305c-0.016,0.016-0.038,0.022-0.052,0.039  c-0.119,0.137-0.229,0.281-0.345,0.42c-0.101,0.12-0.2,0.242-0.299,0.364c-0.225,0.277-0.446,0.557-0.661,0.84  c-0.072,0.096-0.143,0.194-0.214,0.291c-0.235,0.318-0.466,0.639-0.687,0.965c-0.018,0.026-0.035,0.054-0.052,0.08  c-0.967,1.437-1.8,2.95-2.5,4.529c-0.094,0.212-0.191,0.422-0.28,0.636c-0.08,0.192-0.154,0.387-0.23,0.582  c-0.125,0.317-0.247,0.636-0.361,0.958c-0.047,0.133-0.091,0.266-0.136,0.4c-0.133,0.392-0.258,0.788-0.375,1.187  c-0.013,0.044-0.028,0.086-0.041,0.129c-0.002,0.006,0.001,0.011-0.001,0.017C2.412,53.367,2,56.136,2,59  c0,0.622,0.025,1.279,0.078,2.068C2.114,61.592,2.55,62,3.076,62h15.999h25.85h15.999c0.526,0,0.962-0.408,0.998-0.932  C61.975,60.279,62,59.622,62,59c0-2.864-0.412-5.633-1.165-8.258C60.833,50.736,60.836,50.73,60.834,50.725z M5.532,49.883  c0.246-0.716,0.523-1.418,0.824-2.108c0.063-0.144,0.129-0.287,0.194-0.43c0.289-0.631,0.6-1.251,0.936-1.858  c0.096-0.174,0.198-0.345,0.298-0.517c0.339-0.584,0.696-1.159,1.079-1.72c0.103-0.151,0.212-0.299,0.319-0.448  c0.408-0.573,0.834-1.136,1.288-1.682c0.034-0.041,0.07-0.08,0.105-0.121h12.308c-1.42,2.674-2.722,5.707-3.624,9H5.492  C5.506,49.961,5.519,49.922,5.532,49.883z M31,39h-4.607c1.709-2.755,3.4-4.943,4.607-6.378V39z M33,32.618  c1.208,1.435,2.901,3.624,4.612,6.382H33V32.618z M34.362,31.107c6.672,0.56,12.684,3.466,17.208,7.893h-11.57  C37.935,35.496,35.791,32.77,34.362,31.107z M24.001,39h-11.57c4.523-4.427,10.536-7.333,17.208-7.893  C28.209,32.77,26.065,35.496,24.001,39z M25.212,41H31v9h-9.632C22.341,46.689,23.729,43.646,25.212,41z M33,41h5.794  c1.482,2.646,2.869,5.688,3.841,9H33V41z M41.117,41h12.308c0.034,0.041,0.071,0.08,0.105,0.121  c0.454,0.546,0.879,1.109,1.287,1.681c0.107,0.15,0.216,0.298,0.32,0.45c0.383,0.56,0.739,1.135,1.079,1.719  c0.1,0.172,0.201,0.343,0.298,0.517c0.335,0.607,0.647,1.226,0.935,1.857c0.066,0.143,0.131,0.286,0.195,0.43  c0.301,0.69,0.578,1.391,0.824,2.107c0.013,0.039,0.026,0.078,0.04,0.117H44.742C43.84,46.707,42.538,43.674,41.117,41z M4,59  c0-2.416,0.308-4.762,0.886-7H18.77C18.287,54.241,18,56.582,18,59c0,0.317,0.007,0.648,0.021,1H4.021C4.007,59.645,4,59.317,4,59z   M20,59c0-2.412,0.315-4.756,0.836-7H31v8H20.021C20.008,59.668,20,59.335,20,59z M33,60v-8h10.166C43.686,54.243,44,56.587,44,59  c0,0.335-0.008,0.668-0.021,1H33z M59.979,60H45.979C45.993,59.648,46,59.317,46,59c0-2.418-0.287-4.759-0.77-7h13.884  C59.692,54.238,60,56.584,60,59C60,59.317,59.993,59.645,59.979,60z"/></svg>