<?xml version="1.0" ?><!DOCTYPE svg  PUBLIC '-//W3C//DTD SVG 1.1//EN'  'http://www.w3.org/Graphics/SVG/1.1/DTD/svg11.dtd'><svg height="100%" style="fill-rule:evenodd;clip-rule:evenodd;stroke-linejoin:round;stroke-miterlimit:2;" version="1.1" viewBox="0 0 24 24" width="100%" xml:space="preserve" xmlns="http://www.w3.org/2000/svg" xmlns:serif="http://www.serif.com/" xmlns:xlink="http://www.w3.org/1999/xlink"><g id="Icon"><path d="M7.97,12.53c-0.293,-0.292 -0.293,-0.768 -0,-1.06c0.292,-0.293 0.768,-0.293 1.06,-0l1.803,1.803l4.137,-4.137c0.292,-0.292 0.768,-0.292 1.06,0c0.293,0.293 0.293,0.768 0,1.061l-4.666,4.667c-0.293,0.293 -0.768,0.293 -1.061,-0l-2.333,-2.334Z"/><path d="M10.732,1.775c0.336,-0.336 0.792,-0.525 1.268,-0.525c0.476,-0 0.932,0.189 1.268,0.525l1.445,1.445c0.066,0.066 0.16,0.097 0.253,0.082l2.018,-0.319c0.47,-0.075 0.95,0.041 1.335,0.32c0.384,0.28 0.642,0.701 0.717,1.17l0.319,2.018c0.015,0.093 0.073,0.173 0.157,0.216l1.82,0.927c0.424,0.216 0.745,0.592 0.892,1.044c0.147,0.452 0.108,0.945 -0.108,1.368l-0.927,1.821c-0.043,0.084 -0.043,0.182 -0,0.266l0.927,1.821c0.216,0.423 0.255,0.916 0.108,1.368c-0.147,0.452 -0.468,0.828 -0.892,1.044l-1.82,0.927c-0.084,0.043 -0.142,0.123 -0.157,0.216l-0.319,2.018c-0.075,0.469 -0.333,0.89 -0.717,1.17c-0.385,0.279 -0.865,0.395 -1.335,0.32l-2.018,-0.319c-0.093,-0.015 -0.187,0.016 -0.253,0.082l-1.445,1.445c-0.336,0.336 -0.792,0.525 -1.268,0.525c-0.476,0 -0.932,-0.189 -1.268,-0.525l-1.445,-1.445c-0.066,-0.066 -0.16,-0.097 -0.253,-0.082l-2.018,0.319c-0.47,0.075 -0.95,-0.041 -1.335,-0.32c-0.384,-0.28 -0.642,-0.701 -0.717,-1.17l-0.319,-2.018c-0.015,-0.093 -0.073,-0.173 -0.157,-0.216l-1.82,-0.927c-0.424,-0.216 -0.745,-0.592 -0.892,-1.044c-0.147,-0.452 -0.108,-0.945 0.108,-1.368l0.927,-1.821c0.043,-0.084 0.043,-0.182 0,-0.266l-0.927,-1.821c-0.216,-0.423 -0.255,-0.916 -0.108,-1.368c0.147,-0.452 0.468,-0.828 0.892,-1.044l1.82,-0.927c0.084,-0.043 0.142,-0.123 0.157,-0.216l0.319,-2.018c0.075,-0.469 0.333,-0.89 0.717,-1.17c0.385,-0.279 0.865,-0.395 1.335,-0.32l2.018,0.319c0.093,0.015 0.187,-0.016 0.253,-0.082l1.445,-1.445Zm1.061,1.061l-1.445,1.445c-0.406,0.406 -0.982,0.593 -1.549,0.503l-2.018,-0.32c-0.077,-0.012 -0.155,0.007 -0.218,0.053c-0.063,0.045 -0.105,0.114 -0.117,0.191l-0.32,2.018c-0.09,0.567 -0.445,1.057 -0.957,1.317l-1.821,0.928c-0.069,0.035 -0.121,0.097 -0.145,0.171c-0.024,0.074 -0.018,0.154 0.017,0.223l0.928,1.821c0.261,0.511 0.261,1.117 -0,1.628l-0.928,1.821c-0.035,0.069 -0.041,0.149 -0.017,0.223c0.024,0.074 0.076,0.136 0.145,0.171l1.821,0.928c0.512,0.26 0.867,0.75 0.957,1.317l0.32,2.018c0.012,0.077 0.054,0.146 0.117,0.191c0.063,0.046 0.141,0.065 0.218,0.053l2.018,-0.32c0.567,-0.09 1.143,0.097 1.549,0.503l1.445,1.445c0.055,0.055 0.129,0.086 0.207,0.086c0.078,-0 0.152,-0.031 0.207,-0.086l1.445,-1.445c0.406,-0.406 0.982,-0.593 1.549,-0.503l2.018,0.32c0.077,0.012 0.155,-0.007 0.218,-0.053c0.063,-0.045 0.105,-0.114 0.117,-0.191l0.32,-2.018c0.09,-0.567 0.445,-1.057 0.957,-1.317l1.821,-0.928c0.069,-0.035 0.121,-0.097 0.145,-0.171c0.024,-0.074 0.018,-0.154 -0.017,-0.223l-0.928,-1.821c-0.261,-0.511 -0.261,-1.117 0,-1.628l0.928,-1.821c0.035,-0.069 0.041,-0.149 0.017,-0.223c-0.024,-0.074 -0.076,-0.136 -0.145,-0.171l-1.821,-0.928c-0.512,-0.26 -0.867,-0.75 -0.957,-1.317l-0.32,-2.018c-0.012,-0.077 -0.054,-0.146 -0.117,-0.191c-0.063,-0.046 -0.141,-0.065 -0.218,-0.053l-2.018,0.32c-0.567,0.09 -1.143,-0.097 -1.549,-0.503l-1.445,-1.445c-0.055,-0.055 -0.129,-0.086 -0.207,-0.086c-0.078,0 -0.152,0.031 -0.207,0.086Z"/></g></svg>