<?xml version="1.0" ?><!DOCTYPE svg  PUBLIC '-//W3C//DTD SVG 1.1//EN'  'http://www.w3.org/Graphics/SVG/1.1/DTD/svg11.dtd'><svg enable-background="new 0 0 64 64" version="1.1" viewBox="0 0 64 64" xml:space="preserve" xmlns="http://www.w3.org/2000/svg" xmlns:xlink="http://www.w3.org/1999/xlink"><g id="outline__x28_Expand_x29_"><g><path d="M12,55c-2.206,0-4-1.794-4-4s1.794-4,4-4s4,1.794,4,4S14.206,55,12,55z M12,49c-1.103,0-2,0.897-2,2s0.897,2,2,2    s2-0.897,2-2S13.103,49,12,49z"/><path d="M59,62H12v-2h47c0.551,0,1-0.448,1-1V45c0-0.552-0.449-1-1-1h-9v-2h9c1.654,0,3,1.346,3,3v14C62,60.654,60.654,62,59,62z"/><rect height="2" width="2" x="46" y="42"/><rect height="2" width="10.272" x="33.728" y="42"/><path d="M12.09,62h-0.18C6.446,62,2,57.555,2,52.09V24h2v28.09C4,56.451,7.548,60,11.91,60h0.18c4.362,0,7.91-3.549,7.91-7.91V5    c0-0.552-0.449-1-1-1H5C4.449,4,4,4.448,4,5v13H2V5c0-1.654,1.346-3,3-3h14c1.654,0,3,1.346,3,3v47.09    C22,57.555,17.554,62,12.09,62z"/><rect height="2" width="2" x="2" y="20"/><path d="M17,16H7c-0.552,0-1-0.447-1-1V7c0-0.553,0.448-1,1-1h10c0.552,0,1,0.447,1,1v8C18,15.553,17.552,16,17,16z M8,14h8V8H8    V14z"/><path d="M17,28H7c-0.552,0-1-0.447-1-1v-8c0-0.553,0.448-1,1-1h10c0.552,0,1,0.447,1,1v8C18,27.553,17.552,28,17,28z M8,26h8v-6H8    V26z"/><path d="M17,40H7c-0.552,0-1-0.447-1-1v-8c0-0.553,0.448-1,1-1h10c0.552,0,1,0.447,1,1v8C18,39.553,17.552,40,17,40z M8,38h8v-6H8    V38z"/><path d="M19.571,58.571l-1.414-1.414l32.734-32.734c0.389-0.39,0.389-1.024,0-1.414l-9.899-9.899    c-0.378-0.379-1.037-0.379-1.414,0l-17.871,17.87l-1.414-1.414l17.87-17.87c1.133-1.133,3.109-1.133,4.243,0l9.899,9.899    c1.169,1.17,1.169,3.072,0,4.242L19.571,58.571z"/><path d="M41.698,30.373c-0.265,0-0.52-0.105-0.707-0.293l-7.071-7.071c-0.391-0.391-0.391-1.023,0-1.414l5.657-5.657    c0.375-0.375,1.039-0.375,1.414,0l7.071,7.071c0.391,0.391,0.391,1.023,0,1.414l-5.657,5.657    C42.218,30.268,41.963,30.373,41.698,30.373z M36.042,22.302l5.657,5.657l4.243-4.243l-5.657-5.657L36.042,22.302z"/><path d="M33.213,38.857c-0.256,0-0.512-0.098-0.707-0.293l-7.071-7.07c-0.188-0.188-0.293-0.441-0.293-0.707    s0.105-0.52,0.293-0.707l5.657-5.657c0.375-0.375,1.039-0.375,1.414,0l7.071,7.071c0.188,0.188,0.293,0.441,0.293,0.707    s-0.105,0.52-0.293,0.707l-5.657,5.656C33.725,38.76,33.469,38.857,33.213,38.857z M27.556,30.787l5.657,5.656l4.243-4.242    l-5.657-5.657L27.556,30.787z"/><path d="M24.728,47.343c-0.256,0-0.512-0.098-0.707-0.293l-3.536-3.535l1.414-1.414l2.829,2.828l4.243-4.242l-5.657-5.657    l-1.606,1.606l-1.414-1.414l2.313-2.313c0.391-0.391,1.023-0.391,1.414,0l7.071,7.071c0.188,0.188,0.293,0.441,0.293,0.707    s-0.105,0.52-0.293,0.707l-5.657,5.656C25.24,47.245,24.984,47.343,24.728,47.343z"/><path d="M57,58h-8c-0.552,0-1-0.447-1-1V47c0-0.553,0.448-1,1-1h8c0.552,0,1,0.447,1,1v10C58,57.553,57.552,58,57,58z M50,56h6v-8    h-6V56z"/><path d="M45,58h-8c-0.552,0-1-0.447-1-1V47c0-0.553,0.448-1,1-1h8c0.552,0,1,0.447,1,1v10C46,57.553,45.552,58,45,58z M38,56h6v-8    h-6V56z"/><path d="M33,58h-8c-0.552,0-1-0.447-1-1v-5.271h2V56h6v-8h-2.272v-2H33c0.552,0,1,0.447,1,1v10C34,57.553,33.552,58,33,58z"/></g></g></svg>