<?xml version="1.0" ?><svg viewBox="0 0 64 64" xmlns="http://www.w3.org/2000/svg"><title/><g data-name="10 Leader" id="_10_Leader"><path d="M60.919,35.716a10.01,10.01,0,0,0-6.222-8,6,6,0,1,0-7.39,0,9.942,9.942,0,0,0-4.485,3.531,15.974,15.974,0,0,0-6.176-3.557,9,9,0,1,0-9.292,0,15.974,15.974,0,0,0-6.176,3.557,9.942,9.942,0,0,0-4.485-3.531,6,6,0,1,0-7.39,0,10.01,10.01,0,0,0-6.222,8A2.035,2.035,0,0,0,5.1,38H16.811A15.913,15.913,0,0,0,16,43v1a2,2,0,0,0,2,2h8.132l-1,5.832a1,1,0,0,0,1.45,1.053L32,50.04l5.415,2.845a1,1,0,0,0,1.45-1.053l-1-5.832H46a2,2,0,0,0,2-2V43a15.913,15.913,0,0,0-.811-5H58.9a2.035,2.035,0,0,0,2.022-2.284ZM47,23a4,4,0,1,1,4,4A4,4,0,0,1,47,23ZM25,20a7,7,0,1,1,7,7A7.008,7.008,0,0,1,25,20ZM9,23a4,4,0,1,1,4,4A4,4,0,0,1,9,23Zm8.61,13L5.065,35.971a8,8,0,0,1,14.691-3.256A18.48,18.48,0,0,0,17.61,36ZM32.465,48.025a1,1,0,0,0-.93,0l-4.088,2.148.779-4.554a1,1,0,0,0-.288-.885l-.189-.184-.263-.257-.007-.009-2.84-2.767,4.565-.668a1,1,0,0,0,.752-.546L32,36.167,34.044,40.3a1,1,0,0,0,.752.546l4.565.668-2.84,2.767-.006.009c-.232.226-.4.386-.449.436l0,.005,0,0-.008.008h0a1.033,1.033,0,0,0-.273.965c.009.033.019.065.031.1l.746,4.364ZM46,44H39.688c.647-.628,1.441-1.407,2.436-2.382l.084-.082,0,0h0a.124.124,0,0,1,.014-.018,1.046,1.046,0,0,0,.156-.2.94.94,0,0,0,.039-.1.972.972,0,0,0,.062-.154,1.017,1.017,0,0,0,.027-.264v-.008a1.02,1.02,0,0,0-.048-.277,1,1,0,0,0-.116-.237l-.007-.013a12.165,12.165,0,0,0-.184-.2c-.024-.02-.054-.032-.08-.05-.428-.3-.062-.036-6.47-1.059L32.9,33.467a1.041,1.041,0,0,0-1.792,0L28.4,38.946c-3.6.761-7.513.337-6.878,2.1a1,1,0,0,0,.274.493l.445.433.015.016L24.32,44H18V43a14,14,0,0,1,28,0Zm12.9-8H46.39a18.248,18.248,0,0,0-2.146-3.285,8,8,0,0,1,14.684,3.27A.039.039,0,0,1,58.9,36Z"/></g></svg>